<?xml version="1.0" encoding="utf-8"?>
<!-- Generator: Adobe Illustrator 26.1.0, SVG Export Plug-In . SVG Version: 6.00 Build 0)  -->
<svg version="1.1" id="Layer_1" xmlns="http://www.w3.org/2000/svg" xmlns:xlink="http://www.w3.org/1999/xlink" x="0px" y="0px"
	 viewBox="0 0 105 105" style="enable-background:new 0 0 105 105;" xml:space="preserve">
<style type="text/css">
	.st0{fill:#0F75BD;}
</style>
<g>
	<path class="st0" d="M51.9,72c-0.8-0.3-1.8-0.4-2.7-0.2c0.2,1.8-0.1,3.7-0.9,5.5c-0.7,1.7-1.9,3.1-3.2,4.1c0.5,0.6,1.2,1.2,1.8,1.4
		c3.1,1.2,5.6-1.5,6.6-4.1C54.5,76,54.4,72.9,51.9,72L51.9,72z"/>
	<path class="st0" d="M46.5,70.3c-0.4-1.3-1.3-2.1-2.3-2.6c-0.8-0.4-1.9-0.4-2.8-0.1c-0.1,1.6-0.7,3.4-1.9,5.4
		c-1.1,1.7-2.4,3.2-3.8,4.1c0.2,1.6,1.2,2.7,2.8,3.6c1.2,0.5,2.3,0.3,3.2,0.1c1.8-0.7,3.5-2.4,4.4-4.5C47,74.2,47.2,72.1,46.5,70.3
		L46.5,70.3z"/>
	<path class="st0" d="M71.3,50.5c-9.1-7.9-18.6-16-29.6-9c-2.1,3.8-4.8,6.6-8,7.9c-1.3,0.5-2.6,0.7-3.9,0.7c-1.7,0-3.3-0.4-4.8-1.2
		c-1.3-0.7-2.2-1.9-2.6-3.5C22,43.7,22.2,42,23,40.9L29.7,30c1.6-2.8,4.3-4.3,6.3-5.3c1.5-0.5,2.8-1.1,4.2-1.5
		c-6.4-0.2-11.7,0.7-16.3,3c-4.7,2.2-10.8,0.7-16.4-0.6c-0.7,1-2.1,5.5-3.1,13.3c-1,8.8-0.7,14.7-0.1,16.1c5.3,0.7,9.6,2.4,13.4,5.2
		c2.6-2.6,6.7-3.5,9.6-1.8c1.4,0.7,2.3,1.8,2.7,3.2c0.1,0.4,0.2,0.9,0.2,1.4c2.8-1.6,6.2-2,8.4-0.8c1.3,0.6,2.1,1.7,2.5,3.1
		c1.3-0.3,2.7-0.2,3.9,0.3c1.6,0.7,2.8,2.1,3.8,4v0.1c1.4-0.3,2.8-0.2,4,0.3c1.6,0.6,2.6,1.9,3.2,3.6c2,1.5,7.9,5.2,12.3,4
		c1.4-0.3,2.4-1.1,3.3-2.3c-5.5-0.8-11.2-4.4-13.5-6.3c-0.5-0.3-0.6-1.1-0.2-1.6c0.3-0.5,1.1-0.6,1.6-0.2c4.3,3.3,12.5,7.4,17.1,5.6
		c1.5-0.6,2.4-1.8,3-3.6c-4.7-0.5-11-3.7-16.8-8.8c-0.5-0.4-0.5-1.2-0.1-1.7s1.2-0.5,1.7-0.2c6.7,6,13.9,9.2,18.1,8.2
		c1.4-0.3,2.3-1.1,2.8-2.4c0.5-1.4,0.3-2.6-0.4-3.8C80.4,58.2,76.1,54.4,71.3,50.5L71.3,50.5z"/>
	<path class="st0" d="M101.1,38.8c-0.5-8.6-1.8-13.7-2.5-15.2c-4.8,2.7-10.4,5.6-16,6.1c1.7,2,3,4.4,3.7,7.3
		c0.1,0.5-0.2,1.2-0.8,1.4c-0.6,0.1-1.2-0.3-1.4-0.9c-1.9-7.5-8-11.6-17.9-12.3c-1.5-0.1-2.8-0.3-5.2-0.7l-5.6-1.1
		c-2.5-0.4-5.1-0.3-7.4,0.3c-0.5,0.1-1.1,0.3-1.6,0.4h-0.2c-3,0.8-6.4,1.9-9.9,3.2c-1.6,0.6-3.7,1.9-5.2,4.2l-6.6,11
		c-0.4,0.6-0.5,1.7-0.3,2.6c0.2,0.5,0.5,1.5,1.5,1.9c2.3,1.1,4.6,1.2,6.9,0.3c3.5-1.5,6.6-5.3,8.5-10.7c0.2-0.6,0.8-0.9,1.5-0.7
		c0.6,0.2,0.9,0.8,0.7,1.5c-0.1,0.2-0.2,0.5-0.3,0.7c11.2-5.1,21,3.3,29.6,10.6c4.1,3.4,8,6.7,11.9,8.7l1.8-4.2
		c0.2-0.6,0.8-0.8,1.5-0.6c0.6,0.2,0.8,0.8,0.6,1.5l-0.6,1.5c3.2-1.3,7.7-1.5,12.3-1.7C101,52.8,101.6,47.5,101.1,38.8L101.1,38.8z"
		/>
	<path class="st0" d="M55.8,79.5c-0.2,0.5-0.5,1.1-0.7,1.5c4.1,1.8,7.4,1.4,9.6-1.2c-3.2-0.6-6.2-2.1-8.2-3.3
		C56.4,77.3,56.2,78.4,55.8,79.5L55.8,79.5z"/>
	<path class="st0" d="M27.7,61.9c-0.2-0.7-0.7-1.4-1.6-1.8c-0.6-0.3-1.4-0.5-2.2-0.5c-1.8,0-3.7,0.9-5.1,2.5c-0.6,0.9-0.9,2-0.7,3.2
		c0.2,1.4,1.1,2.5,2.2,3.2c2.1,1.1,4.8,0.3,6.3-2.3C27.3,65,28.1,63.2,27.7,61.9L27.7,61.9z"/>
	<path class="st0" d="M29.5,75.3c0.8,0.6,1.8,0.7,2.8,0.5c1.8-0.4,3.6-1.9,5.1-4.2c1.3-2.3,1.9-4.4,1.5-6c-0.2-0.7-0.6-1.3-1.4-1.7
		c-1.8-1.1-5.6-0.1-8,2.1c-0.2,0.5-0.4,1.1-0.7,1.6c-0.5,0.7-1.2,1.5-1.8,2C26.3,71.8,26.5,73.4,29.5,75.3L29.5,75.3z"/>
	<path class="st0" d="M52,92.1c-0.6,0-1.2,0.5-1.2,1.1v6.9c0,0.6,0.5,1.2,1.1,1.2s1.1-0.5,1.1-1.1l0.1-6.9
		C53.2,92.6,52.7,92.1,52,92.1L52,92.1z"/>
	<path class="st0" d="M32.3,86.5c-0.5-0.3-1.3-0.1-1.6,0.4l-3.5,6c-0.3,0.5-0.1,1.3,0.4,1.6c0.2,0.1,0.4,0.2,0.6,0.2
		c0.4,0,0.8-0.2,1-0.6l3.5-6C33,87.5,32.8,86.8,32.3,86.5L32.3,86.5z"/>
	<path class="st0" d="M31.2,17.7c0.2,0.4,0.6,0.6,1,0.6c0.2,0,0.4,0,0.6-0.1c0.6-0.3,0.8-1,0.4-1.6l-3.3-6c-0.3-0.6-1-0.8-1.6-0.4
		c-0.6,0.3-0.8,1-0.4,1.6L31.2,17.7z"/>
	<path class="st0" d="M52.6,12.9c0.6,0,1.2-0.5,1.2-1.1V4.9c0-0.6-0.5-1.2-1.1-1.2s-1.2,0.5-1.2,1.1l-0.1,6.9
		C51.4,12.4,51.9,12.9,52.6,12.9L52.6,12.9z"/>
	<path class="st0" d="M72.3,18.5c0.2,0.1,0.4,0.2,0.6,0.2c0.4,0,0.8-0.2,1-0.6l3.5-6c0.3-0.5,0.1-1.3-0.4-1.6s-1.3-0.1-1.6,0.4
		l-3.5,6C71.6,17.5,71.8,18.2,72.3,18.5L72.3,18.5z"/>
	<path class="st0" d="M73.4,87.3c-0.3-0.6-1-0.8-1.6-0.4c-0.6,0.3-0.8,1-0.4,1.6l3.3,6c0.2,0.4,0.6,0.6,1,0.6c0.2,0,0.4,0,0.6-0.1
		c0.6-0.3,0.8-1,0.4-1.6L73.4,87.3z"/>
</g>
</svg>
