<?xml version="1.0" encoding="utf-8"?>
<!-- Generator: Adobe Illustrator 26.1.0, SVG Export Plug-In . SVG Version: 6.00 Build 0)  -->
<svg version="1.1" id="Layer_1" xmlns="http://www.w3.org/2000/svg" xmlns:xlink="http://www.w3.org/1999/xlink" x="0px" y="0px"
	 viewBox="0 0 105 105" style="enable-background:new 0 0 105 105;" xml:space="preserve">
<style type="text/css">
	.st0{fill-rule:evenodd;clip-rule:evenodd;fill:#0F75BD;}
	.st1{fill:#0F75BD;}
</style>
<path class="st0" d="M20.7,16.5c-2,0.5-3.3,2.2-3.3,4.3v31.7c0,8.7,2,17.3,7.2,24.2c1.8,2.4,3.9,4.7,6,6.6
	c4.7,4.1,13.3,9.8,18.2,12.3c1.2,0.6,2.5,0.9,3.7,0.9s2.6-0.3,3.7-0.9c4.9-2.5,13.5-8.2,18.2-12.3c2.1-1.8,4.1-4.2,6-6.6
	c5.3-6.9,7.2-15.6,7.2-24.2V20.8c0-2-1.4-3.8-3.3-4.3L53.6,8.7c-0.3-0.1-0.7-0.1-1.1-0.1s-0.7,0-1.1,0.1L20.7,16.5z M73.2,42.4
	c1.7-1.7,1.7-4.5,0-6.2c-1.7-1.7-4.5-1.7-6.2,0L48.1,55.1L38,45c-1.7-1.7-4.5-1.7-6.2,0c-1.7,1.7-1.7,4.5,0,6.2L45,64.4
	c1.7,1.7,4.5,1.7,6.2,0L73.2,42.4z"/>
<rect x="-27.6" y="24.3" class="st1" width="9.8" height="9.8"/>
</svg>
