<?xml version="1.0" encoding="utf-8"?>
<!-- Generator: Adobe Illustrator 26.1.0, SVG Export Plug-In . SVG Version: 6.00 Build 0)  -->
<svg version="1.1" id="Layer_1" xmlns="http://www.w3.org/2000/svg" xmlns:xlink="http://www.w3.org/1999/xlink" x="0px" y="0px"
	 viewBox="0 0 105 105" style="enable-background:new 0 0 105 105;" xml:space="preserve">
<style type="text/css">
	.st0{fill:#0F75BD;}
</style>
<g>
	<path class="st0" d="M15.2,66.7v20c5-0.2,6.1,3.2,12.2,3.2h13.4c3.3,0,3.3-4.9,0-4.9v-1.9h2c3.3,0,3.3-4.9,0-4.9v-1.9
		c4.2,0,3.7-4.9,0.1-4.9v-1.9c3.3,0,3.3-4.9,0-4.9H34c-0.7,0-1.1-0.7-0.9-1.3c1-2.7,3.3-10.3-0.6-11.4c-0.6-0.2-1.6-0.2-2.1,0.5
		c-0.9,1.3-1.9,7.8-6.1,11.3C22,65.6,19.2,66.4,15.2,66.7L15.2,66.7z M13.3,65.2H6v23.3h7.3L13.3,65.2L13.3,65.2z M99,65.2h-7.3
		v23.3H99V65.2z M89.8,86.7v-20c-8.8-0.6-11.8-4.2-14.6-13c-0.3-0.8-0.5-1.6-1.3-1.8c-0.9-0.2-1.8,0-2.5,0.7
		C68.7,55.1,72,63,72,63.6c0,0.5-0.4,0.9-1,0.9h-8.9c-3.3,0-3.3,4.9,0,4.9v1.9c-3.6,0-4.1,4.9,0.1,4.9v1.9c-3.3,0-3.3,4.9,0,4.9h2
		V85c-3.3,0-3.3,4.9,0,4.9h13.4C83.7,89.9,84.9,86.5,89.8,86.7L89.8,86.7z M70,22.5H33.1c-1.2,0-1.2-1.9,0-1.9h36.7l-5.9-3.8
		c-1.1-0.7,0-2.3,1-1.6l8.9,5.6l0,0c0.6,0.4,0.6,1.2,0,1.6l-9,5.4c-1.1,0.6-2-1-1-1.6L70,22.5z M71,21.4L70.9,22l0.5-0.3L71,21.4z
		 M36.6,35.4h36.7c1.3,0,1.3,1.9,0,1.9H36.4l6.3,3.8c1.1,0.6,0.1,2.3-1,1.6l-9-5.4c-0.6-0.4-0.6-1.2,0-1.6l0,0l8.9-5.6
		c1.1-0.7,2.1,0.9,1,1.6L36.6,35.4z M35.4,36.7l-0.1-0.6l-0.4,0.3L35.4,36.7z"/>
</g>
</svg>
