<?xml version="1.0" encoding="utf-8"?>
<!-- Generator: Adobe Illustrator 26.1.0, SVG Export Plug-In . SVG Version: 6.00 Build 0)  -->
<svg version="1.1" id="Layer_1" xmlns="http://www.w3.org/2000/svg" xmlns:xlink="http://www.w3.org/1999/xlink" x="0px" y="0px"
	 viewBox="0 0 105 105" style="enable-background:new 0 0 105 105;" xml:space="preserve">
<style type="text/css">
	.st0{fill-rule:evenodd;clip-rule:evenodd;fill:#0F75BD;}
</style>
<g>
	<path class="st0" d="M35,91.9l4.6-5.8c0.5-0.5,0.6-1.3,0.2-1.9c-0.3-0.5-0.7-0.8-1.2-1c-0.7-0.2-1.4,0.1-1.8,0.6l-4.6,5.8
		c-0.5,0.5-0.6,1.3-0.2,1.9c0.1,0.2,0.3,0.4,0.5,0.6c0.2,0.2,0.5,0.3,0.7,0.4C33.8,92.8,34.6,92.5,35,91.9z M42.8,97.5
		c0,0.6,0.1,1.1,0.5,1.6c0.2,0.3,0.5,0.6,0.9,0.8c0.3,0.2,0.7,0.3,1,0.2c0.8-0.1,1.5-0.6,1.9-1.3l0.9-1.1c0.3-0.4,0.5-0.9,0.5-1.4
		c0-0.5-0.2-0.9-0.5-1.3c-0.3-0.4-0.7-0.8-1.2-1c-0.3-0.2-0.7-0.3-1-0.3L42.8,97.5L42.8,97.5z M43.9,91.7L40.5,96
		c0,0-0.1,0.1-0.1,0.1c-0.5,0.6-1.3,0.8-2,0.5c-0.3-0.1-0.6-0.3-0.8-0.5c-0.2-0.2-0.4-0.4-0.6-0.7c-0.4-0.6-0.3-1.3,0.2-1.9l4.6-5.8
		c0.4-0.5,1-0.8,1.6-0.6c0.3,0.1,0.5,0.2,0.7,0.4c0.2,0.2,0.4,0.4,0.6,0.7c0.4,1.1,0.2,2.3-0.6,3.2C44,91.6,44,91.7,43.9,91.7
		L43.9,91.7z M85.3,75.7c0,0,0,0.1,0.1,0.1l1.8,4.6c0,0.1,0.1,0.2,0.3,0.3c0.1,0.1,0.2,0.1,0.4,0l9.4-3.7c0.2-0.1,0.4-0.4,0.3-0.6
		L86.1,47.2c0-0.1,0-0.1-0.1-0.2c-0.1-0.2-0.3-0.3-0.5-0.2c-0.1,0-0.1,0-0.2,0.1l-9.2,3.6c-0.1,0-0.1,0-0.2,0.1
		c-0.1,0.1-0.2,0.1-0.2,0.2c0,0.1-0.1,0.2,0,0.3c0,0.1,0,0.1,0.1,0.2l0.8,2.1c0,0,0,0,0,0.1v0L85.3,75.7L85.3,75.7z M19,77.3
		c0,0,0-0.1,0.1-0.1l11.3-25.6c0.1-0.1,0.1-0.2,0-0.4c0-0.1-0.1-0.2-0.2-0.3l-9.2-4.1c-0.1-0.1-0.2-0.1-0.4,0
		c-0.1,0-0.2,0.1-0.3,0.2L7.6,75.9c-0.1,0.1-0.1,0.2,0,0.4c0,0.1,0.1,0.2,0.2,0.3l9.2,4.1c0.2,0.1,0.5,0,0.6-0.2L19,77.3z
		 M28.1,83.9l1.9-2.4c0.6-1,1.7-1.5,2.8-1.5c0.3,0,0.6,0.2,0.9,0.3c0.3,0.2,0.5,0.4,0.6,0.6c0.3,0.4,0.3,0.8,0.1,1.2l-4.3,5.4
		c-0.3,0.1-0.7,0-1-0.1c-0.4-0.2-0.7-0.4-1-0.8c-0.3-0.3-0.5-0.7-0.5-1.1c-0.1-0.5,0-1.1,0.4-1.5C28.1,84,28.1,84,28.1,83.9z
		 M46.5,59.2c0.2-0.2,0.3-0.3,0.5-0.5c1.2-1.2,2.4-2.3,3.4-3.1c0.6-0.6,1.4-1.2,2.2-1.5c1-0.2,2-0.2,3,0.1c1.1,0.2,2.6,0.4,4.2,0.7
		c2.9,0.5,6.1,1,8.5,1.2c1.5,0.1,3.1,0.1,4.6-0.1c0.6-0.1,1.1-0.2,1.6-0.4c2.5,6.6,5.1,13.2,7.7,19.8c-2,0.8-2.5,2.3-3.1,4
		c-0.5,1.8-1.7,3.4-3.4,4.3L53.9,66.2c-0.7-0.6-1.6-1-2.5-1.1c-1-0.1-2,0.2-2.7,0.9c-0.6,0.6-1,1.4-1.1,2.2l0,0.1
		c-0.1,0.5-0.2,0.9-0.2,1.4c-0.1,0.4-0.1,0.9-0.2,1.4c-0.1,0.6-0.3,1.2-0.6,1.8c-0.2,0.5-0.5,0.9-0.8,1.4c-0.3,0.5-0.7,0.9-1.2,1.2
		c-0.4,0.3-0.8,0.4-1.2,0.5c-0.4,0.1-0.8,0-1.2-0.1c-0.4-0.1-0.7-0.2-1.1-0.4c-0.2-0.1,0.2,0.1,0.2-1v0c-0.1-2-0.2-6-0.2-8.1
		c-0.1-0.5,0-1.1,0.1-1.6c0.4-0.6,0.9-1.2,1.4-1.7c0.9-1,2.3-2.4,3.8-3.8C46.4,59.3,46.5,59.3,46.5,59.2L46.5,59.2z M69.6,87.7
		l-8.8-7.1c-0.6-0.5-1.5-0.4-1.9,0.2s-0.4,1.5,0.2,1.9l9.2,7.4c0.4,0.5,0.6,1.1,0.3,1.7c-0.2,0.6-0.6,1.1-1.2,1.5
		c-0.6,0.4-1.4,0.4-2-0.1l-8.1-6.5c-0.1-0.1-0.1-0.1-0.2-0.1l-0.1-0.1c-0.6-0.4-1.5-0.3-1.9,0.4c-0.4,0.6-0.3,1.3,0.2,1.8l6.1,4.9
		c0.6,0.4,0.8,1.2,0.6,1.9c-0.2,0.6-0.6,1.1-1.2,1.5c-0.6,0.4-1.4,0.4-2-0.1l-4.6-3.7c-0.6-0.5-1.5-0.4-1.9,0.2s-0.4,1.5,0.2,1.9
		l3.1,2.5c0.1,0.1,0.2,0.2,0.3,0.3c0.6,0.4,0.8,1.2,0.6,1.9c-0.1,0.3-0.3,0.6-0.5,0.8c-0.2,0.3-0.4,0.5-0.7,0.6
		c-0.6,0.4-1.4,0.4-2-0.1l-2.7-2.2c0.6-0.8,0.9-1.8,0.9-2.8c0-1.1-0.4-2.1-1-2.9c-0.6-0.8-1.3-1.4-2.2-1.9c-0.2-0.1-0.5-0.2-0.7-0.3
		c0.5-1.3,0.4-2.8-0.2-4.1c-0.3-0.6-0.7-1.2-1.2-1.6c-0.5-0.4-1.1-0.8-1.7-0.9c-0.4-0.1-0.9-0.2-1.4-0.2c-0.1-0.6-0.3-1.1-0.5-1.6
		c-0.6-1.1-1.6-1.9-2.9-2.3c-0.7-0.2-1.5-0.3-2.2-0.1c-0.1-0.3-0.3-0.6-0.4-0.9c-0.8-1.2-2.1-2.1-3.5-2.3c-2.1-0.2-4.1,0.8-5.3,2.5
		l-0.7,0.9c-0.6-1-1.3-2-2.2-2.8c-0.8-0.6-1.7-1-2.6-1.2l9.1-20.6c0.6,0.3,1.2,0.7,1.8,1c1.2,0.6,2.4,1.1,3.7,1.4
		c1.8,0.5,3.7,0.8,5.5,0.9c-0.7,0.7-1.2,1.3-1.7,1.8c-0.8,0.7-1.5,1.5-2,2.5c-0.4,0.9-0.5,1.8-0.4,2.8c0,2.2,0.2,6.1,0.2,8.1v0
		c0.1,2.9,0.1,2.9,1.5,3.5c0.5,0.2,1,0.4,1.5,0.5c0.8,0.2,1.5,0.2,2.3,0.1c0.8-0.2,1.6-0.5,2.3-1c0.7-0.5,1.4-1.1,1.9-1.9
		c0.4-0.6,0.8-1.2,1.1-1.9c0.3-0.7,0.5-1.5,0.7-2.3C50,71,50,70.5,50.1,70c0-0.4,0.1-0.7,0.2-1.1l0-0.1c0-0.3,0.2-0.6,0.3-0.9
		c0.1-0.1,0.3-0.1,0.5-0.1c0.4,0.1,0.7,0.2,1,0.5l0,0l0,0l0,0l0,0l22.4,18c0,0,0.1,0.1,0.1,0.1c0.3,0.3,0.5,0.7,0.6,1.2
		c0,0.6-0.1,1.1-0.5,1.5l0,0c-0.3,0.4-0.8,0.7-1.4,0.8c-0.5,0.1-1,0-1.3-0.3l-1.9-1.6c-0.1-0.1-0.2-0.2-0.3-0.3
		C69.7,87.8,69.6,87.8,69.6,87.7z M47.7,20.3c-0.6-0.5-0.7-1.3-0.3-1.9c0.5-0.6,1.3-0.7,1.9-0.3l2.4,1.8l3.7-4.7
		c0.5-0.6,1.3-0.7,1.9-0.2s0.7,1.3,0.2,1.9L53,22.7l0,0c-0.5,0.6-1.3,0.7-1.9,0.2L47.7,20.3L47.7,20.3z M41.9,34.3l-3.6,7.8l3.6-0.3
		c0.5-0.1,1,0.1,1.3,0.6l2.1,3l3.7-8.1c-0.1,0-0.2-0.1-0.3-0.1c-0.4,0-0.8,0-1.1,0.1c-0.9,0.2-1.8,0.2-2.7-0.1
		c-0.8-0.4-1.5-1.1-1.9-1.8c-0.2-0.3-0.4-0.6-0.7-0.8C42.3,34.4,42.1,34.4,41.9,34.3L41.9,34.3z M56.8,37.3l3.8,8.1l2.1-3
		c0.3-0.4,0.8-0.7,1.3-0.6l3.6,0.3l-3.7-8c-0.1,0-0.3,0.1-0.4,0.1c-0.4,0.1-0.7,0.2-1,0.3c-0.3,0.2-0.5,0.5-0.7,0.8
		c-0.4,0.8-1.1,1.4-1.9,1.8c-0.9,0.3-1.8,0.3-2.7,0.1C57.1,37.3,57,37.3,56.8,37.3L56.8,37.3z M54.1,35.1c0,0,0.1-0.1,0.1-0.1
		c0.4-0.2,0.9-0.4,1.3-0.5c0.7-0.1,1.4-0.1,2.1,0.1c0.4,0.1,0.8,0.1,1.2,0.1c0.3-0.2,0.6-0.5,0.7-0.9c0.7-1.3,2-2.1,3.4-2.3
		c0.3-0.1,0.7-0.2,1-0.3l0,0c0,0,0,0,0.1,0c0.2-0.3,0.3-0.7,0.3-1.1c0.1-0.7,0.4-1.4,0.7-2c0.4-0.6,1-1,1.6-1.4
		c0.3-0.2,0.6-0.4,0.9-0.7c0-0.4,0-0.8-0.1-1.2c-0.2-0.7-0.2-1.4-0.1-2.1c0.2-0.7,0.5-1.3,0.9-1.9c0.3-0.3,0.4-0.7,0.5-1.2
		c-0.1-0.4-0.3-0.8-0.5-1.2c-0.4-0.6-0.7-1.2-0.9-1.9c-0.1-0.7-0.1-1.4,0.1-2.1c0.1-0.4,0.1-0.8,0.1-1.2c-0.2-0.3-0.5-0.6-0.9-0.7
		c-0.6-0.4-1.1-0.8-1.6-1.4c-0.4-0.6-0.6-1.3-0.7-2c0-0.4-0.2-0.7-0.3-1.1c-0.3-0.2-0.7-0.3-1.1-0.3c-0.7-0.1-1.4-0.4-2-0.7
		c-0.6-0.4-1-1-1.4-1.6c-0.2-0.3-0.4-0.6-0.7-0.9c-0.4,0-0.8,0-1.2,0.1c-0.7,0.2-1.4,0.2-2.1,0.1c-0.7-0.2-1.3-0.5-1.9-0.9
		c-0.3-0.3-0.7-0.5-1.2-0.6c-0.4,0.1-0.8,0.3-1.2,0.5c-0.6,0.4-1.2,0.7-1.9,0.9c-0.7,0.1-1.4,0.1-2.1-0.1c-0.4-0.1-0.8-0.1-1.2-0.1
		c-0.3,0.2-0.6,0.5-0.7,0.9C45,6,44.5,6.5,44,7c-0.6,0.4-1.3,0.6-2,0.7c-0.4,0-0.7,0.2-1.1,0.3c-0.2,0.3-0.3,0.7-0.3,1.1
		c-0.1,0.7-0.4,1.4-0.7,2c-0.4,0.6-1,1-1.6,1.4c-0.3,0.2-0.6,0.4-0.9,0.7c0,0.4,0,0.8,0.1,1.2c0.2,0.7,0.2,1.4,0.1,2.1
		c-0.2,0.7-0.5,1.3-0.9,1.9c-0.3,0.3-0.4,0.7-0.5,1.2c0.1,0.4,0.3,0.8,0.5,1.2c0.4,0.6,0.7,1.2,0.9,1.9c0.1,0.7,0.1,1.4-0.1,2.1
		c-0.1,0.4-0.1,0.8-0.1,1.2c0.2,0.3,0.5,0.6,0.9,0.7c0.6,0.4,1.1,0.8,1.6,1.4c0.4,0.6,0.6,1.3,0.7,2c0,0.4,0.2,0.7,0.3,1.1
		c0.1,0.1,0.3,0.2,0.5,0.2c0.1,0,0.1,0,0.2,0c0.1,0,0.3,0.1,0.4,0.1c0.7,0.1,1.4,0.4,2,0.7c0.6,0.4,1,1,1.4,1.6
		c0.2,0.3,0.4,0.6,0.7,0.9c0.4,0.1,0.8,0,1.2-0.1c0.7-0.2,1.4-0.2,2.1-0.1c0.7,0.2,1.3,0.5,1.9,0.9l0.2,0.1c0,0,0.1,0.1,0.1,0.1
		c0.2,0.2,0.5,0.3,0.8,0.3c0.4-0.1,0.8-0.3,1.2-0.5C53.8,35.3,54,35.2,54.1,35.1L54.1,35.1z M58.6,13.5c-3.4-3.4-8.8-3.4-12.2,0
		c-3.4,3.4-3.4,8.8,0,12.2s8.8,3.4,12.2,0c1.6-1.6,2.5-3.8,2.5-6.1C61.1,17.3,60.2,15.1,58.6,13.5z M52.5,8.2
		c-6.3,0-11.4,5.1-11.4,11.4c0,6.3,5.1,11.4,11.4,11.4c6.3,0,11.4-5.1,11.4-11.4c0-3-1.2-5.9-3.3-8C58.4,9.4,55.5,8.2,52.5,8.2z"/>
</g>
</svg>
