<?xml version="1.0" encoding="utf-8"?>
<!-- Generator: Adobe Illustrator 26.1.0, SVG Export Plug-In . SVG Version: 6.00 Build 0)  -->
<svg version="1.1" id="Layer_1" xmlns="http://www.w3.org/2000/svg" xmlns:xlink="http://www.w3.org/1999/xlink" x="0px" y="0px"
	 viewBox="0 0 105 105" style="enable-background:new 0 0 105 105;" xml:space="preserve">
<style type="text/css">
	.st0{fill-rule:evenodd;clip-rule:evenodd;fill:#0F75BD;}
	.st1{fill:#0F75BD;}
</style>
<path class="st0" d="M38.8,10.1c4.4,0,8,3.6,8,8c0,4.4-3.6,8-8,8c-4.4,0-8-3.6-8-8C30.8,13.6,34.4,10.1,38.8,10.1L38.8,10.1z
	 M17,59.3L24.4,87c3.3-2,6.7-2.7,10.9-1.7l15,3.4c3.4,0.8,6.6,0.5,9.6-1.3l37.4-21.6c3.3-1.9,4.5-6.2,2.6-9.6
	c-1.9-3.3-6.2-4.5-9.6-2.6L67.7,66.7c0,0.9-0.1,1.7-0.3,2.6c-1.3,4.9-6.5,7.9-11.4,6.5l-14-3.8c-0.8-0.2-1.3-1.1-1.1-1.9
	c0.2-0.8,1.1-1.3,1.9-1.1l14,3.8c3.3,0.9,6.7-1.1,7.6-4.3c1.1-4.1-1.3-8.4-5.4-9.5l-26.1-7.1c-3.5-0.5-6.6,0.4-9.4,2.5L17,59.3
	L17,59.3z M13.4,57.7l9,33.6c0.2,0.8-0.3,1.7-1.1,1.9l-6.2,1.7c-0.8,0.2-1.7-0.3-1.9-1.1l-9-33.6c-0.2-0.8,0.3-1.7,1.1-1.9l6.2-1.7
	C12.3,56.4,13.1,56.9,13.4,57.7L13.4,57.7z M76.7,46.8c-0.7-7.6-7.1-13.6-14.8-13.6s-14.1,6-14.8,13.6c-0.1,0.7,0.5,1.3,1.2,1.3
	h27.2C76.2,48.1,76.8,47.5,76.7,46.8L76.7,46.8z M61.9,15.2c4.4,0,8,3.6,8,8c0,4.4-3.6,8-8,8c-4.4,0-8-3.6-8-8
	C53.9,18.8,57.5,15.2,61.9,15.2L61.9,15.2z M99.8,41.6c0.1,0.7-0.5,1.3-1.2,1.3H79.1c-1.1-3.5-3.2-6.6-6-8.9c2.7-3.6,7-6,11.9-6
	C92.7,28.1,99.1,34.1,99.8,41.6L99.8,41.6z M50.7,34c-2.8,2.2-5,5.3-6,8.9H25.2c-0.7,0-1.2-0.6-1.2-1.3c0.7-7.6,7.1-13.6,14.8-13.6
	C43.7,28.1,48,30.4,50.7,34L50.7,34z M85,10.1c4.4,0,8,3.6,8,8c0,4.4-3.6,8-8,8c-4.4,0-8-3.6-8-8C77,13.6,80.6,10.1,85,10.1z"/>
<rect x="-23.4" y="31.8" class="st1" width="9.8" height="9.8"/>
</svg>
